<?xml version="1.0" encoding="UTF-8" standalone="no"?>
<!-- Created with Inkscape (http://www.inkscape.org/) -->

<svg
   width="51.022209mm"
   height="44.70726mm"
   viewBox="0 0 51.022209 44.70726"
   version="1.1"
   id="svg5"
   inkscape:version="1.2 (dc2aedaf03, 2022-05-15)"
   sodipodi:docname="drips.svg"
   inkscape:export-filename="..\website\etc\backDrip.svg"
   inkscape:export-xdpi="96"
   inkscape:export-ydpi="96"
   xmlns:inkscape="http://www.inkscape.org/namespaces/inkscape"
   xmlns:sodipodi="http://sodipodi.sourceforge.net/DTD/sodipodi-0.dtd"
   xmlns="http://www.w3.org/2000/svg"
   xmlns:svg="http://www.w3.org/2000/svg">
  <sodipodi:namedview
     id="namedview7"
     pagecolor="#ffffff"
     bordercolor="#000000"
     borderopacity="0.25"
     inkscape:showpageshadow="2"
     inkscape:pageopacity="0.0"
     inkscape:pagecheckerboard="0"
     inkscape:deskcolor="#d1d1d1"
     inkscape:document-units="mm"
     showgrid="false"
     inkscape:zoom="4"
     inkscape:cx="75.75"
     inkscape:cy="96.75"
     inkscape:window-width="2560"
     inkscape:window-height="1369"
     inkscape:window-x="-8"
     inkscape:window-y="-8"
     inkscape:window-maximized="1"
     inkscape:current-layer="layer1" />
  <defs
     id="defs2" />
  <g
     inkscape:label="Layer 1"
     inkscape:groupmode="layer"
     id="layer1"
     transform="translate(-26.867716,-106.31641)">
    <g
       id="g1748"
       inkscape:export-filename="..\website\etc\backDrip.svg"
       inkscape:export-xdpi="96"
       inkscape:export-ydpi="96">
      <g
         id="path186">
        <path
           style="color:#000000;fill:#343434;stroke-width:5;stroke-linecap:round;stroke-linejoin:round"
           d="m 29.36875,108.81735 v 39.68749"
           id="path1169" />
        <path
           style="color:#000000;fill:#343434;stroke-linecap:round;stroke-linejoin:round"
           d="m 29.369141,106.31641 a 2.5,2.5 0 0 0 -2.5,2.5 v 39.6875 a 2.5,2.5 0 0 0 2.5,2.5 2.5,2.5 0 0 0 2.5,-2.5 v -39.6875 a 2.5,2.5 0 0 0 -2.5,-2.5 z"
           id="path1171" />
      </g>
      <g
         id="path186-5">
        <path
           style="color:#000000;fill:#343434;stroke-width:4.48502;stroke-linecap:round;stroke-linejoin:round"
           d="m 36.304747,116.82917 v 31.93316"
           id="path1175" />
        <path
           style="color:#000000;fill:#343434;stroke-linecap:round;stroke-linejoin:round"
           d="m 36.304687,114.58594 a 2.2425101,2.2425101 0 0 0 -2.242187,2.24414 v 31.93164 a 2.2425101,2.2425101 0 0 0 2.242187,2.24219 2.2425101,2.2425101 0 0 0 2.242188,-2.24219 v -31.93164 a 2.2425101,2.2425101 0 0 0 -2.242188,-2.24414 z"
           id="path1177" />
      </g>
      <g
         id="path186-5-5">
        <path
           style="color:#000000;fill:#343434;stroke-width:4.87534;stroke-linecap:round;stroke-linejoin:round"
           d="m 43.178414,110.83403 v 37.73314"
           id="path1181" />
        <path
           style="color:#000000;fill:#343434;stroke-linecap:round;stroke-linejoin:round"
           d="m 43.177734,108.39648 a 2.43767,2.43767 0 0 0 -2.4375,2.4375 v 37.73243 a 2.43767,2.43767 0 0 0 2.4375,2.4375 2.43767,2.43767 0 0 0 2.4375,-2.4375 v -37.73243 a 2.43767,2.43767 0 0 0 -2.4375,-2.4375 z"
           id="path1183" />
      </g>
      <g
         id="path186-5-5-1">
        <path
           style="color:#000000;fill:#343434;stroke-width:3.47206;stroke-linecap:round;stroke-linejoin:round"
           d="m 49.545602,130.1312 v 19.13761"
           id="path1187" />
        <path
           style="color:#000000;fill:#343434;stroke-linecap:round;stroke-linejoin:round"
           d="m 49.544922,128.39453 a 1.73603,1.73603 0 0 0 -1.734375,1.73633 v 19.13867 a 1.73603,1.73603 0 0 0 1.734375,1.73438 1.73603,1.73603 0 0 0 1.736328,-1.73438 v -19.13867 a 1.73603,1.73603 0 0 0 -1.736328,-1.73633 z"
           id="path1189" />
      </g>
      <g
         id="path186-5-5-1-9">
        <path
           style="color:#000000;fill:#343434;stroke-width:3.87527;stroke-linecap:round;stroke-linejoin:round"
           d="m 55.412754,125.22659 v 23.84062"
           id="path1193" />
        <path
           style="color:#000000;fill:#343434;stroke-linecap:round;stroke-linejoin:round"
           d="m 55.412109,123.28906 a 1.9376349,1.9376349 0 0 0 -1.9375,1.9375 v 23.83985 a 1.9376349,1.9376349 0 0 0 1.9375,1.9375 1.9376349,1.9376349 0 0 0 1.9375,-1.9375 v -23.83985 a 1.9376349,1.9376349 0 0 0 -1.9375,-1.9375 z"
           id="path1195" />
      </g>
      <g
         id="path186-5-5-1-9-4">
        <path
           style="color:#000000;fill:#343434;stroke-width:2.99941;stroke-linecap:round;stroke-linejoin:round"
           d="m 61.043581,135.22326 v 14.28188"
           id="path1199" />
        <path
           style="color:#000000;fill:#343434;stroke-linecap:round;stroke-linejoin:round"
           d="m 61.042969,133.72266 a 1.499705,1.499705 0 0 0 -1.5,1.5 v 14.2832 a 1.499705,1.499705 0 0 0 1.5,1.49805 1.499705,1.499705 0 0 0 1.5,-1.49805 v -14.2832 a 1.499705,1.499705 0 0 0 -1.5,-1.5 z"
           id="path1201" />
      </g>
      <g
         id="path186-5-5-1-9-4-2">
        <path
           style="color:#000000;fill:#343434;stroke-width:4.72834;stroke-linecap:round;stroke-linejoin:round"
           d="m 67.100943,113.14865 v 35.49202"
           id="path1205" />
        <path
           style="color:#000000;fill:#343434;stroke-linecap:round;stroke-linejoin:round"
           d="m 67.101562,110.78516 a 2.3641701,2.3641701 0 0 0 -2.365234,2.36328 v 35.49218 a 2.3641701,2.3641701 0 0 0 2.365234,2.36329 2.3641701,2.3641701 0 0 0 2.363282,-2.36329 v -35.49218 a 2.3641701,2.3641701 0 0 0 -2.363282,-2.36328 z"
           id="path1207" />
      </g>
      <g
         id="path186-5-5-1-9-4-2-1">
        <path
           style="color:#000000;fill:#343434;stroke-width:4.03472;stroke-linecap:round;stroke-linejoin:round"
           d="m 73.67596,123.14467 v 25.84281"
           id="path1224" />
        <path
           style="color:#000000;fill:#343434;stroke-linecap:round;stroke-linejoin:round"
           d="m 73.675781,121.12695 a 2.01736,2.01736 0 0 0 -2.017578,2.01758 v 25.84375 a 2.01736,2.01736 0 0 0 2.017578,2.01563 2.01736,2.01736 0 0 0 2.017578,-2.01563 v -25.84375 a 2.01736,2.01736 0 0 0 -2.017578,-2.01758 z"
           id="path1221" />
      </g>
      <path
         id="rect3569"
         style="fill:#343434;stroke-width:14.9253"
         d="m 26.867716,148.02075 v 3.00292 h 51.022209 v -3.00292 h -0.0036 a 1.1000002,1.1000002 0 0 1 -1.097608,1.03559 1.1000002,1.1000002 0 0 1 -1.097607,-1.03559 h -4.034896 a 1.1000002,1.1000002 0 0 1 -1.097607,1.03559 1.1000002,1.1000002 0 0 1 -1.097091,-1.03559 h -4.725293 a 1.1000002,1.1000002 0 0 1 -1.097607,1.03559 1.1000002,1.1000002 0 0 1 -1.097091,-1.03559 h -3.000334 a 1.1000002,1.1000002 0 0 1 -1.097607,1.03559 1.1000002,1.1000002 0 0 1 -1.097091,-1.03559 h -3.870048 a 1.1000002,1.1000002 0 0 1 -1.097607,1.03559 1.1000002,1.1000002 0 0 1 -1.097608,-1.03559 h -3.472139 a 1.1000002,1.1000002 0 0 1 -1.097091,1.03559 1.1000002,1.1000002 0 0 1 -1.097607,-1.03559 h -4.874121 a 1.1000002,1.1000002 0 0 1 -1.097608,1.03559 1.1000002,1.1000002 0 0 1 -1.09709,-1.03559 H 34.06521 a 1.1000002,1.1000002 0 0 1 -1.097607,1.03559 1.1000002,1.1000002 0 0 1 -1.097091,-1.03559 z" />
    </g>
  </g>
</svg>
