<?xml version="1.0" encoding="UTF-8" standalone="no"?>
<!-- Created with Inkscape (http://www.inkscape.org/) -->

<svg
   width="172.78415mm"
   height="45.000011mm"
   viewBox="0 0 172.78415 45.000011"
   version="1.1"
   id="svg1"
   inkscape:version="1.3.2 (091e20e, 2023-11-25, custom)"
   sodipodi:docname="iconLogo.svg"
   xmlns:inkscape="http://www.inkscape.org/namespaces/inkscape"
   xmlns:sodipodi="http://sodipodi.sourceforge.net/DTD/sodipodi-0.dtd"
   xmlns="http://www.w3.org/2000/svg"
   xmlns:svg="http://www.w3.org/2000/svg">
  <sodipodi:namedview
     id="namedview1"
     pagecolor="#ffffff"
     bordercolor="#000000"
     borderopacity="0.25"
     inkscape:showpageshadow="2"
     inkscape:pageopacity="0.0"
     inkscape:pagecheckerboard="0"
     inkscape:deskcolor="#d1d1d1"
     inkscape:document-units="mm"
     inkscape:zoom="1"
     inkscape:cx="432"
     inkscape:cy="486.5"
     inkscape:window-width="2560"
     inkscape:window-height="1369"
     inkscape:window-x="-8"
     inkscape:window-y="-8"
     inkscape:window-maximized="1"
     inkscape:current-layer="layer1" />
  <defs
     id="defs1" />
  <g
     inkscape:label="Layer 1"
     inkscape:groupmode="layer"
     id="layer1"
     transform="translate(-18.651108,-21.441221)">
    <g
       id="g2"
       inkscape:export-filename="full_logo.svg"
       inkscape:export-xdpi="96"
       inkscape:export-ydpi="96">
      <path
         id="path1"
         style="fill:#292929;fill-opacity:1;stroke-width:2.31334;stroke-linecap:round;paint-order:stroke fill markers"
         d="m 34.493354,21.556314 c -2.820076,-2.4e-5 -5.106253,2.286017 -5.106396,5.106094 -2.7e-5,2.820196 2.286199,5.106424 5.106396,5.106399 l 1.860916,3.551404 c 1.330118,3.693461 3.937998,6.84779 4.97233,13.855998 -2.28212,-3.203024 -4.959,-5.518843 -7.500665,-7.134378 -1.811173,-1.151239 -3.568647,-1.96517 -5.079425,-2.539868 -0.509005,-2.348363 -2.586412,-4.024125 -4.989306,-4.024673 -2.820079,1.42e-4 -5.106121,2.286323 -5.106095,5.106399 0.0026,2.008964 1.179624,3.80761 2.969947,4.631351 0.191999,0.08835 0.50519,0.182564 0.563824,0.50277 0.05877,4.850883 0.0399,7.023723 0.03267,11.875693 9.9e-5,0.90087 0.730461,1.63109 1.631327,1.63102 0.900745,-1.1e-4 1.630919,-0.73027 1.631018,-1.63102 l -0.07509,-11.390041 c -0.16814,-2.036818 2.216541,-2.337586 2.18691,-0.363739 l 0.231873,7.61832 c 9.9e-5,0.90087 0.730461,1.63109 1.631327,1.63102 0.900747,-8e-5 1.630925,-0.73026 1.631023,-1.63102 l -0.08094,-5.417196 c -0.07127,-2.388722 2.636587,-3.157279 2.665573,0.1092 l 0.197077,11.356636 c 9.9e-5,0.90087 0.730461,1.63109 1.631327,1.63102 0.900745,-9e-5 1.630919,-0.73027 1.631018,-1.63102 l -0.09389,-8.29115 c 0.285106,-1.766874 2.955588,3.37304 3.987963,6.19915 -1.166114,0.96823 -1.841837,2.40446 -1.844359,3.92014 -2.6e-5,2.8202 2.286201,5.10642 5.106395,5.10639 2.820198,4e-5 5.106427,-2.28619 5.106402,-5.10639 -0.01073,-1.33527 -0.544065,-2.61323 -1.485728,-3.55998 1.472501,-3.5294 5.098337,-10.085636 5.269782,-8.365984 v 6.929374 c -7.1e-5,0.90097 0.73034,1.63139 1.631327,1.63132 0.900986,7e-5 1.888998,-0.62662 1.888926,-1.52759 v -8.430826 c -0.0046,-1.082745 1.059156,-2.853782 3.154349,-2.883395 1.290408,0.06474 2.375311,1.199075 2.511517,2.166115 l 0.127792,11.059876 c 1.02e-4,0.90087 0.472862,1.52736 1.373727,1.52729 0.900746,-10e-5 1.630917,-0.73027 1.631018,-1.63102 l -0.01963,-11.717125 -7.6e-5,-0.481713 c -0.02823,-0.432012 0.412431,-0.821744 0.597894,-0.920558 1.64841,-0.878277 2.703081,-2.602617 2.703687,-4.504325 -1.42e-4,-2.819958 -2.286135,-5.10595 -5.106093,-5.106093 -2.72379,0.0061 -4.963348,2.14889 -5.089542,4.869759 -3.699083,1.89449 -8.741227,5.453877 -12.517256,11.872325 0.349901,-5.76655 5.305876,-11.931339 8.953662,-20.618343 0.04634,0.0039 0.09273,0.0072 0.139163,0.0098 2.820078,2.7e-5 5.106259,-2.286015 5.106402,-5.106093 2.6e-5,-2.820199 -2.286203,-5.106428 -5.106402,-5.106401 -2.820078,1.43e-4 -5.10612,2.286322 -5.106094,5.106401 0.0013,1.21047 0.432589,2.381113 1.216908,3.303113 -1.725586,4.085935 -6.107036,10.259581 -6.96915,13.94961 -0.735367,-3.081255 -3.262655,-7.733226 -4.038113,-9.886513 -0.587195,-1.630504 -1.170433,-3.002596 -1.715009,-4.16537 0.679141,-0.885865 1.049301,-1.969862 1.053829,-3.086092 -1.43e-4,-2.819959 -2.286135,-5.105952 -5.106094,-5.106095 z"
         sodipodi:nodetypes="cccccccccsccccccccccccccccccccccccccccccccscccccccccccscccc" />
      <path
         id="text1"
         style="font-size:55px;line-height:1;font-family:'Brittany Signature';-inkscape-font-specification:'Brittany Signature';letter-spacing:0.00264583px;fill:#292929;fill-opacity:1;stroke:none;stroke-width:1.84952;stroke-linecap:round;stroke-dasharray:none;paint-order:stroke fill markers"
         d="m 134.68073,21.46738 c -1.66767,0.03606 -3.34796,-0.0658 -5.0087,0.04652 -1.07462,0.28663 -1.27838,1.844962 -0.39503,2.474856 0.47043,0.568782 1.22712,0.972547 1.53642,1.625608 0.004,12.181325 5.6e-4,24.362659 -0.0103,36.543979 -0.70368,0.9305 -1.83735,1.66025 -2.10468,2.84333 -0.0789,1.03238 1.1059,1.59934 1.99822,1.39996 2.5198,-0.0469 5.06288,0.10988 7.5675,-0.0998 1.10763,-0.35714 1.01215,-1.94155 0.16948,-2.53821 -0.43788,-0.61154 -1.16602,-1.07872 -1.43395,-1.77571 -0.0234,-13.119327 0.0325,-26.241451 -0.0343,-39.358985 -0.1248,-1.130559 -1.38186,-1.258451 -2.28478,-1.161623 z m -55.648296,-0.0041 c -1.750397,0.04434 -3.514686,-0.06414 -5.257632,0.05263 -1.18549,0.354341 -1.19189,2.152261 -0.122694,2.664127 0.402165,0.39699 1.044397,0.67193 1.300491,1.148973 0.0057,13.330928 -0.01952,26.666213 0.02227,39.994433 0.166329,1.22271 1.845601,1.3519 2.5762,0.55854 0.611747,-0.45007 1.224231,-0.91 1.835516,-1.35387 1.817818,1.64074 4.685921,2.55216 6.940265,1.2752 2.06866,-1.34202 2.640746,-3.94108 3.083002,-6.20182 0.85576,-5.05795 0.856045,-10.218427 0.69725,-15.331914 -0.193672,-3.275692 -0.435134,-6.744232 -2.163009,-9.62538 -1.053931,-1.623859 -3.111136,-2.46207 -5.000694,-2.030183 -0.639043,0.124866 -1.254191,0.368195 -1.808317,0.710309 -0.02191,-3.605135 0.06114,-7.219843 -0.05261,-10.818813 -0.211847,-0.937442 -1.231586,-1.125504 -2.05003,-1.042218 z m 31.869566,0.0062 c -1.7337,0.03129 -3.48248,-0.06755 -5.20905,0.04652 -1.18631,0.354372 -1.1861,2.147972 -0.12406,2.663817 0.40821,0.401631 1.05328,0.665651 1.30388,1.157375 -0.001,12.44576 -0.003,24.891531 -0.004,37.337291 -0.55496,0.46341 -1.19661,0.82752 -1.67565,1.37814 -0.0313,-3.36023 0.0597,-6.72877 -0.0587,-10.08421 -0.20839,-1.23017 -2.14981,-1.38922 -2.54382,-0.19831 -0.97295,2.81396 -1.85605,5.65803 -2.85547,8.46319 -0.54543,0.12523 -1.26153,0.0139 -1.72017,-0.006 2.21885,-9.40029 4.45422,-18.799291 6.61555,-28.212728 0.10504,-1.021743 -1.00777,-1.723856 -1.93751,-1.491397 -3.4266,0.02072 -6.858164,-0.03564 -10.281716,0.03233 -1.118208,0.203727 -1.448816,1.511664 -1.270385,2.486345 0.03809,3.283651 -0.08468,6.5802 0.0735,9.855592 0.28891,1.286147 2.343893,1.264222 2.662059,0.0072 0.959785,-2.730887 1.813371,-5.525807 2.808915,-8.220356 0.431287,-0.129416 0.884777,0.02974 1.325537,-0.0142 -2.355801,9.311904 -4.729332,18.627554 -7.036471,27.953704 -0.217757,0.90362 0.504827,1.99286 1.504031,1.77868 3.861983,-0.0302 7.73382,0.0653 11.58944,-0.0566 0.39613,0.0229 0.73827,-0.58969 0.92687,-0.53426 0.67708,0.95183 1.93353,0.48941 2.90161,0.58766 2.04728,-0.0295 4.11997,0.1029 6.15051,-0.10398 0.35467,-0.0946 0.6485,-0.48913 0.74878,-0.74677 0.35145,1.03026 1.67497,0.89784 2.54858,0.83394 1.83405,0.0144 3.67421,0.072 5.50785,-0.0326 1.22204,-0.41386 1.1203,-2.20358 0.089,-2.7725 -0.86275,-0.78223 -1.81274,-1.61329 -2.00154,-2.82827 -1.59669,-4.73919 -3.19336,-9.47837 -4.79006,-14.217548 1.44473,-3.485076 2.70869,-7.054454 4.28841,-10.477703 0.71469,-0.72095 1.84647,-1.440398 1.58848,-2.629946 -0.34216,-0.985136 -1.50788,-0.987208 -2.36573,-0.88235 -1.76716,0.0052 -3.55159,-0.102989 -5.31025,0.06072 -1.04601,0.259968 -1.06884,1.714801 -0.34201,2.333349 0.27116,0.597503 1.28618,1.056971 0.76567,1.795681 -0.57294,1.441352 -1.1459,2.882703 -1.71884,4.324055 -0.001,-6.178434 0.0155,-12.35691 -0.0202,-18.535271 -0.24732,-0.986349 -1.26432,-1.151832 -2.13301,-1.050311 z m 49.35454,-0.0062 c -1.75039,0.04434 -3.51468,-0.06414 -5.25762,0.05263 -1.1348,0.332343 -1.21384,2.059671 -0.20673,2.598757 0.43173,0.427203 1.11156,0.706258 1.38656,1.222434 0.009,13.323623 -0.0135,26.650682 0.0162,39.972162 0.15667,1.23144 1.84664,1.37172 2.58227,0.57272 0.61107,-0.45008 1.22288,-0.90999 1.83349,-1.35387 1.81815,1.63967 4.68586,2.55255 6.94027,1.2752 2.09725,-1.36542 2.66147,-4.00944 3.10229,-6.30364 0.83878,-5.02923 0.83718,-10.158397 0.6771,-15.24117 -0.19195,-3.272128 -0.43728,-6.733487 -2.16041,-9.612077 -1.059,-1.640675 -3.14159,-2.469259 -5.04201,-2.026349 -0.62382,0.130441 -1.22473,0.368505 -1.76671,0.704248 -0.0228,-3.605135 0.0582,-7.219843 -0.0546,-10.818813 -0.21169,-0.938924 -1.2308,-1.124933 -2.05003,-1.042218 z m 22.82961,11.059646 c -0.91228,0.02 -1.39861,0.910781 -2.048,1.410525 -1.64793,-1.74746 -4.72285,-1.896447 -6.43324,-0.150313 -2.3021,2.04245 -2.71921,5.405366 -2.24112,8.293849 0.48878,3.780203 2.32148,7.196739 4.25595,10.416166 1.42693,2.69395 2.76028,5.71435 2.36433,8.82937 -0.23231,0.64839 -1.00238,0.47643 -1.29496,-0.0172 -1.0661,-1.24444 -1.39676,-2.85237 -1.87178,-4.31837 -0.38845,-1.31814 -0.4919,-2.74149 -1.0345,-3.99817 -0.72889,-1.08788 -2.62221,-0.28398 -2.41836,0.98353 0.0384,3.82632 -0.0806,7.6628 0.0688,11.4826 0.25647,1.15333 1.85404,1.16045 2.52265,0.37383 0.3276,-0.10983 0.52252,-0.94254 0.82864,-0.63084 2.09617,1.86544 5.55998,1.44088 7.39363,-0.59158 1.91522,-1.9248 2.20745,-4.87109 1.73035,-7.42538 -0.58792,-4.00473 -2.57479,-7.6076 -4.66071,-11.009326 -1.40982,-2.597969 -2.72596,-5.586204 -2.20278,-8.577287 -0.0145,-0.597784 0.55909,-0.450164 0.77105,-0.083 1.02179,1.195194 1.35555,2.7975 1.89417,4.239328 0.43144,1.319439 0.57773,2.770696 1.08676,4.08829 0.65693,1.14292 2.63549,0.506789 2.55191,-0.795325 -0.009,-3.791858 0.0794,-7.593934 -0.0506,-11.379379 -0.12933,-0.571517 -0.58661,-1.136061 -1.21214,-1.141387 z m -37.03209,0.01212 c -2.89897,0.316387 -5.27588,2.405516 -6.8665,4.725395 -0.5642,0.771535 -0.40786,2.211322 0.67593,2.385974 1.25844,0.224709 1.92893,-1.115566 2.98209,-1.520285 1.11546,-0.611201 2.48279,-1.277858 3.75489,-0.774622 0.57272,0.884391 0.24096,2.021562 0.33832,3.015754 0.059,0.793853 -0.2678,1.581304 -0.98877,1.962284 -2.68886,2.217249 -5.71665,4.525025 -6.75828,8.014817 -0.81975,2.88309 -0.693,5.93812 -0.44534,8.89371 0.277,2.50814 1.11837,5.33578 3.49092,6.61959 2.01364,1.05426 4.59851,0.4673 6.1764,-1.06852 1.34206,1.62372 4.08427,2.27207 5.71538,0.70747 1.12343,-1.01194 1.98727,-2.55744 1.76835,-4.10125 -0.35156,-1.09882 -2.01864,-1.04627 -2.44871,-0.0344 -0.48736,0.65036 -0.30919,-0.60084 -0.33243,-0.9498 0.0196,-6.85716 0.0349,-13.718553 -0.0215,-20.576781 -0.0813,-2.807283 -1.52721,-5.830849 -4.29869,-6.848034 -0.86963,-0.339637 -1.80936,-0.497153 -2.74214,-0.451292 z m -63.382973,4.676831 c 0.553777,0.851442 0.486358,1.97136 0.643076,2.952476 0.400665,5.125783 0.224025,10.27522 0.14477,15.41016 -0.08278,1.97618 -0.139726,3.99056 -0.641723,5.90946 -0.185318,0.66684 -0.888727,-0.0365 -1.103576,-0.31812 -0.923505,-1.45519 -0.461089,-3.27341 -0.574723,-4.89456 0.02474,-5.55458 -0.06724,-11.115255 0.05898,-16.66594 0.152833,-0.899582 0.528222,-2.107749 1.473184,-2.393476 z m 81.220063,0 c 0.5633,0.855245 0.49228,1.986281 0.64835,2.975033 0.40175,5.137181 0.22105,10.297993 0.14136,15.444253 -0.0911,1.98387 -0.12939,4.01318 -0.67234,5.93216 -0.19272,0.52836 -0.79863,-0.0939 -1.00385,-0.31151 -1.0016,-1.41601 -0.52847,-3.267 -0.64149,-4.88419 0.0238,-5.58669 -0.0667,-11.179465 0.0589,-16.76227 0.1525,-0.90297 0.52606,-2.096796 1.46914,-2.393476 z m -16.94867,22.246736 c -0.0502,0.85514 -0.30211,1.9749 -1.20614,2.28478 -0.57957,-0.7618 -0.48438,-1.85447 -0.62641,-2.77655 -0.19497,-2.68556 -0.21787,-5.40648 0.12773,-8.07929 0.25324,-1.39217 0.7919,-2.756358 1.70482,-3.850549 0,4.140539 0,8.281079 0,12.421609 z m -32.7155,-0.71033 c 0.46794,1.50155 1.08212,3.00335 1.43887,4.51291 -0.25191,0.45546 -0.71583,0.98916 -0.87223,1.38827 -0.25017,-0.92282 -1.34104,-1.29862 -1.73817,-2.08483 0.0175,-2.41549 -0.0295,-4.83131 0.014,-7.24655 0.38586,1.1434 0.77171,2.28681 1.15757,3.4302 z m 73.65135,-0.28129 c -1.86507,0.18857 -2.87254,2.20298 -2.80227,3.91225 -0.09,1.71723 0.85265,3.76155 2.73269,3.99648 1.79199,0.31526 3.43676,-1.2789 3.54174,-3.02352 0.32313,-1.78519 -0.25534,-4.05021 -2.11829,-4.73546 -0.43553,-0.14328 -0.89799,-0.18431 -1.35387,-0.14975 z" />
    </g>
  </g>
</svg>
