<?xml version="1.0" encoding="UTF-8" standalone="no"?>
<!-- Created with Inkscape (http://www.inkscape.org/) -->

<svg
   width="145.85742mm"
   height="55.154655mm"
   viewBox="0 0 145.85742 55.154655"
   version="1.1"
   id="svg5"
   inkscape:version="1.2 (dc2aedaf03, 2022-05-15)"
   sodipodi:docname="logo-light.svg"
   inkscape:export-filename="logo.svg"
   inkscape:export-xdpi="96"
   inkscape:export-ydpi="96"
   xmlns:inkscape="http://www.inkscape.org/namespaces/inkscape"
   xmlns:sodipodi="http://sodipodi.sourceforge.net/DTD/sodipodi-0.dtd"
   xmlns="http://www.w3.org/2000/svg"
   xmlns:svg="http://www.w3.org/2000/svg">
  <sodipodi:namedview
     id="namedview7"
     pagecolor="#ffffff"
     bordercolor="#000000"
     borderopacity="0.25"
     inkscape:showpageshadow="2"
     inkscape:pageopacity="0.0"
     inkscape:pagecheckerboard="0"
     inkscape:deskcolor="#d1d1d1"
     inkscape:document-units="mm"
     showgrid="false"
     inkscape:zoom="0.914906"
     inkscape:cx="227.89226"
     inkscape:cy="146.46313"
     inkscape:window-width="2560"
     inkscape:window-height="1369"
     inkscape:window-x="-8"
     inkscape:window-y="-8"
     inkscape:window-maximized="1"
     inkscape:current-layer="text741" />
  <defs
     id="defs2" />
  <g
     inkscape:label="Layer 1"
     inkscape:groupmode="layer"
     id="layer1"
     transform="translate(-32.447266,-110.27509)">
    <g
       aria-label="bzk labs."
       id="text741"
       style="font-size:70.2045px;stroke:#000000;stroke-width:2.5;stroke-linecap:round;stroke-linejoin:round">
      <g
         id="g1077"
         style="fill:#63727a;fill-opacity:1">
        <g
           id="path988"
           style="fill:#63727a;fill-opacity:1">
          <path
             style="color:#000000;-inkscape-font-specification:'Birch Std, Normal';fill:#63727a;stroke:none;stroke-linecap:butt;stroke-linejoin:miter;-inkscape-stroke:none;fill-opacity:1"
             d="m 36.294361,163.82772 c 0,0.14041 0,0.35102 0.280818,0.35102 0.210613,0 0.421227,-0.14041 0.63184,-0.28082 l 3.229407,-2.38695 h 0.140409 c 1.333886,1.40409 3.229407,2.66777 5.475951,2.66777 3.088998,0 6.318405,-1.75511 6.318405,-21.55278 0,-15.6556 -3.369816,-17.48092 -6.38861,-17.48092 -2.03593,0 -3.44002,1.12327 -4.633496,2.45716 h -0.140409 v -15.65561 c 0,-0.28081 -0.140409,-0.42122 -0.421227,-0.42122 h -6.669428 c -0.280818,0 -0.421227,0.0702 -0.421227,0.28082 0,0.1404 0.07021,0.35102 0.280818,0.49143 l 2.035931,1.6147 c 0.210613,0.14041 0.280818,0.35102 0.280818,0.56164 z m 4.914315,-30.39855 c 0,-3.44002 2.106135,-5.26534 3.088998,-5.26534 1.755112,0 2.597566,1.4743 2.597566,14.46213 0,16.77888 -0.702045,18.53399 -2.527362,18.53399 -1.684908,0 -3.159202,-1.89552 -3.159202,-4.77391 z"
             id="path1007" />
          <path
             style="color:#000000;-inkscape-font-specification:'Birch Std, Normal';fill:#63727a;stroke:none;stroke-linecap:butt;stroke-linejoin:miter;-inkscape-stroke:none;fill-opacity:1"
             d="m 34.117187,110.27539 c -0.244568,0 -0.558942,-0.0103 -0.978515,0.25195 -0.419574,0.26224 -0.691406,0.89622 -0.691406,1.2793 0,0.55713 0.253926,1.14193 0.83789,1.53125 l -0.08398,-0.0606 1.84375,1.46289 v 49.08789 c 0,0.0702 -0.05543,0.34423 0.166015,0.78711 0.221445,0.44289 0.910378,0.81446 1.363282,0.81446 0.766173,0 1.115557,-0.35178 1.326172,-0.49219 a 1.250125,1.250125 0 0 0 0.04883,-0.0352 l 2.552734,-1.88672 c 1.434839,1.2783 3.249188,2.41407 5.550781,2.41407 0.89062,0 1.965623,-0.13959 2.966797,-0.78321 1.001175,-0.64361 1.846091,-1.73032 2.507813,-3.3457 1.323443,-3.23076 2.09375,-8.70899 2.09375,-18.67578 0,-7.91748 -0.807919,-12.42512 -2.197266,-15.17383 -1.389347,-2.74871 -3.680073,-3.55664 -5.441406,-3.55664 -1.401838,0 -2.532982,0.49057 -3.523438,1.14258 v -13.08984 c 0,-0.34875 -0.107825,-0.83635 -0.472656,-1.20118 -0.364831,-0.36482 -0.850475,-0.4707 -1.199219,-0.4707 z m 2.47461,2.5 h 3.367187 v 14.82617 a 1.250125,1.250125 0 0 0 1.25,1.25 h 0.125 c -0.782438,1.09905 -1.375,2.64452 -1.375,4.57813 v 22.95703 c 0,1.61564 0.406401,3.01614 1.13086,4.0957 a 1.250125,1.250125 0 0 0 -0.513672,-0.2207 h -0.140625 a 1.250125,1.250125 0 0 0 -0.742188,0.24414 l -2.148437,1.58789 v -47.61914 c 0,-0.48839 -0.253935,-1.21226 -0.837891,-1.60156 l 0.08398,0.0605 z m 9.390625,13.61914 c 1.257457,0 2.16068,0.10575 3.210937,2.18359 1.050257,2.07785 1.927735,6.30877 1.927735,14.04688 0,9.83086 -0.844696,15.13231 -1.908203,17.72852 -0.531754,1.2981 -1.071804,1.8853 -1.544922,2.18945 -0.473119,0.30415 -0.961357,0.38672 -1.615235,0.38672 -0.957026,0 -1.847141,-0.32431 -2.666015,-0.79492 0.326385,0.10071 0.628515,0.27539 0.980468,0.27539 0.656649,0 1.612367,-0.30583 2.16211,-1.03321 0.549743,-0.72738 0.805491,-1.63909 1.021484,-2.99609 0.431986,-2.714 0.59375,-7.34899 0.59375,-15.75586 0,-6.52094 -0.189908,-10.15055 -0.667969,-12.36523 -0.23903,-1.10735 -0.543932,-1.91285 -1.128906,-2.52539 -0.584973,-0.61255 -1.437003,-0.82032 -2.050781,-0.82032 -0.180324,0 -0.300364,0.11712 -0.464844,0.14649 0.624839,-0.40577 1.305219,-0.66602 2.150391,-0.66602 z m -1.685547,3.01953 c 0.263777,0 0.175576,-0.0229 0.242187,0.0469 0.06661,0.0697 0.303169,0.44341 0.494141,1.32812 0.381944,1.76942 0.611328,5.36906 0.611328,11.83594 0,8.372 -0.187135,13.00501 -0.5625,15.36328 -0.187682,1.17914 -0.451615,1.75482 -0.546875,1.88086 -0.09526,0.12604 0.08804,0.041 -0.167969,0.041 -0.373703,0 -0.781573,-0.19282 -1.183593,-0.77149 -0.40202,-0.57866 -0.72461,-1.52617 -0.72461,-2.75195 v -22.95703 c 0,-1.46491 0.442541,-2.51337 0.933594,-3.1836 0.491053,-0.67022 1.186676,-0.83203 0.904297,-0.83203 z"
             id="path1009" />
        </g>
        <g
           id="path990"
           style="fill:#63727a;fill-opacity:1">
          <path
             style="color:#000000;-inkscape-font-specification:'Birch Std, Normal';fill:#63727a;stroke:none;stroke-linecap:butt;stroke-linejoin:miter;-inkscape-stroke:none;fill-opacity:1"
             d="m 56.2325,138.34349 c 0,0.35102 0.140409,0.56163 0.351022,0.56163 0.210614,0 0.421227,-0.21061 0.561636,-0.77225 l 3.229407,-9.61801 c 0.280818,-0.70205 0.702045,-0.98287 1.333886,-0.98287 h 3.369816 l -9.056381,35.8745 v 0.49143 c 0,0.14041 0,0.28082 0.210614,0.28082 h 14.0409 c 0.421227,0 0.561636,-0.28082 0.561636,-0.49143 V 150.9803 c 0,-0.35103 -0.07021,-0.70205 -0.280818,-0.70205 -0.280818,0 -0.421227,0.35102 -0.491432,0.70205 l -3.299611,9.89883 c -0.210614,0.63184 -0.702045,0.91266 -1.40409,0.91266 h -3.720839 l 8.42454,-35.8043 c 0.07021,-0.21061 0.07021,-0.42122 0.07021,-0.49143 0,-0.21061 -0.07021,-0.35102 -0.351023,-0.35102 H 56.86434 c -0.351022,0 -0.63184,0.28082 -0.63184,0.56164 z"
             id="path1013" />
          <path
             style="color:#000000;-inkscape-font-specification:'Birch Std, Normal';fill:#63727a;stroke:none;stroke-linecap:butt;stroke-linejoin:miter;-inkscape-stroke:none;fill-opacity:1"
             d="m 56.865234,123.89453 c -1.017693,0 -1.882812,0.69835 -1.882812,1.8125 v 12.63672 c 0,0.34218 0.05258,0.70623 0.292969,1.08398 0.240389,0.37776 0.786627,0.72657 1.308593,0.72657 0.521966,0 1.026868,-0.31865 1.289063,-0.65235 0.262195,-0.3337 0.38742,-0.67858 0.484375,-1.0664 l -0.02734,0.0957 3.205078,-9.55273 c 0.0025,-0.006 0.0015,4e-5 0.0039,-0.006 0.07708,-0.18706 0.123765,-0.21325 0.101563,-0.19727 -0.0229,0.0165 -0.06238,0.006 0.06836,0.006 h 1.765625 l -8.664062,34.31836 a 1.250125,1.250125 0 0 0 -0.03906,0.30664 v 0.49219 c 0,0.0702 -0.06688,0.30177 0.158203,0.75195 0.225087,0.45018 0.919649,0.7793 1.302735,0.7793 h 14.041015 c 0.488393,0 1.032026,-0.21179 1.363282,-0.57617 0.331255,-0.36439 0.449218,-0.78293 0.449218,-1.16602 v -12.70703 c 10e-7,-0.25885 -0.0093,-0.52592 -0.126953,-0.87891 -0.05883,-0.17649 -0.144267,-0.3888 -0.363281,-0.62109 -0.219014,-0.23229 -0.641135,-0.45313 -1.041016,-0.45313 -0.661237,0 -1.191401,0.48632 -1.396484,0.82813 -0.205082,0.3418 -0.269496,0.62482 -0.320312,0.8789 l 0.03906,-0.14843 -3.298828,9.89843 c -0.03064,0.0919 -0.01187,0.038 0.002,0.0293 0.01383,-0.009 -0.03635,0.0274 -0.220703,0.0274 h -2.142578 l 8.0625,-34.26758 -0.03125,0.10937 c 0.149279,-0.44779 0.134765,-0.81651 0.134765,-0.88672 0,-0.2442 -0.02495,-0.66453 -0.371093,-1.06836 -0.346145,-0.40382 -0.881724,-0.5332 -1.230469,-0.5332 z m 0.617188,2.5 h 3.853515 c -0.395251,0.0516 -0.807179,0.10023 -1.15625,0.35156 -0.46168,0.33242 -0.765738,0.80693 -0.964843,1.30469 a 1.250125,1.250125 0 0 0 -0.02539,0.0664 l -1.707031,5.08398 z m 7.958984,0 h 3.240235 l -8.259766,35.11133 a 1.250125,1.250125 0 0 0 0.986328,1.42383 h -3.976562 l 8.859375,-35.0918 a 1.250125,1.250125 0 0 0 -0.84961,-1.44336 z m 4.144531,29.96875 v 6.56641 H 65.78125 c 0.383866,-0.0466 0.775654,-0.0752 1.130859,-0.29883 0.487706,-0.30708 0.857138,-0.81556 1.03711,-1.35547 z"
             id="path1015" />
        </g>
        <g
           id="path992"
           style="fill:#63727a;fill-opacity:1">
          <path
             style="color:#000000;-inkscape-font-specification:'Birch Std, Normal';fill:#63727a;stroke:none;stroke-linecap:butt;stroke-linejoin:miter;-inkscape-stroke:none;fill-opacity:1"
             d="m 80.523289,111.94659 c 0,-0.28081 -0.07021,-0.42122 -0.351023,-0.42122 h -6.739631 c -0.280818,0 -0.421227,0.0702 -0.421227,0.28082 0,0.1404 0.0702,0.35102 0.280818,0.49143 l 2.03593,1.6147 c 0.210614,0.14041 0.280818,0.35102 0.280818,0.56164 v 46.75619 c 0,0.21062 -0.0702,0.42123 -0.280818,0.56164 l -2.03593,1.6147 c -0.210614,0.14041 -0.280818,0.35102 -0.280818,0.49143 0,0.21062 0.140409,0.28082 0.421227,0.28082 h 8.915971 c 0.210613,0 0.421227,-0.0702 0.421227,-0.28082 0,-0.14041 -0.140409,-0.35102 -0.280818,-0.49143 l -1.684908,-1.6147 c -0.210614,-0.14041 -0.280818,-0.35102 -0.280818,-0.56164 v -11.09231 l 1.193476,-3.01879 4.703702,13.97069 c 0.140409,0.42123 0.0702,0.84246 -0.07021,1.19348 l -0.772249,1.05307 c -0.140409,0.21061 -0.280818,0.42122 -0.280818,0.56163 0,0.14041 0,0.28082 0.280818,0.28082 h 7.792699 c 0.210614,0 0.351023,-0.14041 0.351023,-0.35102 0,-0.21061 -0.140409,-0.42123 -0.351023,-0.56164 l -1.965726,-1.89552 c -0.210613,-0.21061 -0.561636,-0.77225 -0.772249,-1.40409 l -6.38861,-18.95521 4.914315,-12.28579 c 0.280818,-0.63184 0.491432,-1.12327 0.842454,-1.5445 l 1.263681,-1.19348 c 0.280818,-0.28081 0.351023,-0.42122 0.351023,-0.56163 0,-0.21062 -0.07021,-0.28082 -0.280818,-0.28082 h -7.231064 c -0.280818,0 -0.351022,0.0702 -0.351022,0.21061 0,0.0702 0.0702,0.14041 0.140409,0.28082 l 1.333885,1.75511 c 0.351023,0.42123 0.491432,1.05307 0.210614,1.61471 l -4.773906,12.00497 h -0.140409 z"
             id="path1019" />
          <path
             style="color:#000000;-inkscape-font-specification:'Birch Std, Normal';fill:#63727a;stroke:none;stroke-linecap:butt;stroke-linejoin:miter;-inkscape-stroke:none;fill-opacity:1"
             d="m 73.433594,110.27539 c -0.244569,0 -0.558942,-0.0103 -0.978516,0.25195 -0.419573,0.26224 -0.693359,0.89622 -0.693359,1.2793 0,0.55707 0.253897,1.14193 0.83789,1.53125 l -0.08398,-0.0606 1.84375,1.46289 v 46.22461 l -1.84375,1.46289 0.08398,-0.0605 c -0.583959,0.38931 -0.83789,0.97418 -0.83789,1.53125 0,0.38308 0.273786,1.01706 0.693359,1.27929 0.419574,0.26224 0.733947,0.25196 0.978516,0.25196 h 8.914062 c 0.244187,0 0.530815,-0.0145 0.898438,-0.21875 0.367622,-0.20424 0.773437,-0.79054 0.773437,-1.3125 0,-0.48687 -0.14992,-0.69583 -0.265625,-0.88867 -0.115705,-0.19284 -0.237003,-0.34248 -0.380859,-0.48633 a 1.250125,1.250125 0 0 0 -0.01953,-0.0195 l -1.580079,-1.51563 v -9.7832 l 3.460938,10.27929 c 0.01658,0.0497 -0.005,0.15007 -0.0332,0.25391 l -0.63086,0.85938 a 1.250125,1.250125 0 0 0 -0.0332,0.0449 c -0.0702,0.1053 -0.156678,0.23125 -0.25,0.40234 -0.09332,0.17109 -0.240234,0.36665 -0.240234,0.85352 0,0.0702 -0.07347,0.40737 0.246094,0.88672 0.319561,0.47934 0.936413,0.64453 1.285156,0.64453 h 7.792969 c 0.383085,0 0.824706,-0.14893 1.138672,-0.46289 0.313965,-0.31397 0.46289,-0.75559 0.46289,-1.13868 0,-0.76617 -0.430895,-1.28335 -0.908203,-1.60156 l 0.173828,0.14063 -1.949219,-1.88086 v -0.002 c 0.08225,0.0818 -0.32183,-0.46744 -0.470703,-0.91406 a 1.250125,1.250125 0 0 0 -0.002,-0.004 l -6.240234,-18.51758 4.724609,-11.81641 0.002,-0.004 c 0.276627,-0.62228 0.448315,-0.97848 0.644532,-1.22071 l 1.175781,-1.11133 a 1.250125,1.250125 0 0 0 0.02539,-0.0254 c 0.177241,-0.17723 0.327823,-0.33934 0.46875,-0.57421 0.140928,-0.23488 0.248047,-0.59256 0.248047,-0.8711 0,-0.2442 -0.0303,-0.70609 -0.427734,-1.10351 -0.397435,-0.39743 -0.859328,-0.42774 -1.103516,-0.42774 h -7.230468 c -0.244569,0 -0.548596,-0.0203 -0.97461,0.26367 -0.426014,0.28401 -0.626953,0.91873 -0.626953,1.19727 0,0.45176 0.171108,0.67189 0.222656,0.75781 0.05155,0.0859 0.05294,0.0863 0.05078,0.082 a 1.250125,1.250125 0 0 0 0.123046,0.19727 l 1.333985,1.75586 a 1.250125,1.250125 0 0 0 0.03516,0.043 c 0.06242,0.0749 0.09132,0.17869 0.05273,0.25586 a 1.250125,1.250125 0 0 0 -0.04492,0.0976 l -2.501954,6.29297 v -22.89062 c 0,-0.24459 0.01234,-0.62288 -0.320312,-1.06641 -0.332653,-0.44353 -0.932505,-0.60547 -1.28125,-0.60547 z m 2.472656,2.5 h 3.367187 v 28.23633 a 1.250125,1.250125 0 0 0 1.25,1.25 h 0.140625 a 1.250125,1.250125 0 0 0 1.16211,-0.78906 l 4.773437,-12.00391 -0.04492,0.0957 c 0.523055,-1.04611 0.272439,-2.2051 -0.367187,-2.97265 l 0.03516,0.043 -0.183594,-0.24024 h 2.994141 c -0.492224,0.59536 -0.742324,1.2049 -1.017578,1.82422 a 1.250125,1.250125 0 0 0 -0.01758,0.043 l -4.914063,12.28515 a 1.250125,1.250125 0 0 0 -0.02344,0.86329 l 6.386719,18.95507 v -0.004 c 0.272101,0.8163 0.568959,1.38732 1.074218,1.89258 a 1.250125,1.250125 0 0 0 0.01563,0.0156 l 0.685547,0.66016 h -3.8125 a 1.250125,1.250125 0 0 0 0.101563,-0.18164 c 0.215115,-0.53778 0.352745,-1.27575 0.09375,-2.05274 a 1.250125,1.250125 0 0 0 0,-0.004 L 82.902344,146.7207 a 1.250125,1.250125 0 0 0 -2.347657,-0.0605 l -1.193359,3.01757 a 1.250125,1.250125 0 0 0 -0.08789,0.46094 v 11.0918 c 0,0.48839 0.253932,1.21225 0.837891,1.60156 l -0.171875,-0.13867 0.246094,0.23633 H 75.90625 l 0.199219,-0.15821 -0.08398,0.0606 c 0.583971,-0.38931 0.837891,-1.11319 0.837891,-1.60156 V 114.4747 c 0,-0.48839 -0.253932,-1.21226 -0.837891,-1.60156 l 0.08398,0.0605 z"
             id="path1021" />
        </g>
        <g
           id="path994"
           style="fill:#63727a;fill-opacity:1">
          <path
             style="color:#000000;-inkscape-font-specification:'Birch Std, Normal';fill:#63727a;stroke:none;stroke-linecap:butt;stroke-linejoin:miter;-inkscape-stroke:none;fill-opacity:1"
             d="m 110.00918,111.94659 c 0,-0.28081 -0.14041,-0.42122 -0.35102,-0.42122 h -6.73963 c -0.21062,0 -0.42123,0.0702 -0.42123,0.28082 0,0.1404 0.14041,0.35102 0.28082,0.49143 l 2.10613,2.03593 c 0.14041,0.14041 0.21062,0.28082 0.21062,0.56163 v 45.42231 c 0,0.28082 0,0.49144 -0.14041,0.63184 l -2.17634,2.45716 c -0.14041,0.14041 -0.28082,0.35102 -0.28082,0.49143 0,0.21062 0.21061,0.28082 0.42123,0.28082 h 9.26699 c 0.28082,0 0.42123,-0.0702 0.42123,-0.28082 0,-0.14041 -0.14041,-0.35102 -0.28082,-0.49143 l -2.17634,-2.45716 c -0.14041,-0.1404 -0.14041,-0.35102 -0.14041,-0.63184 z"
             id="path1025" />
          <path
             style="color:#000000;-inkscape-font-specification:'Birch Std, Normal';fill:#63727a;stroke:none;stroke-linecap:butt;stroke-linejoin:miter;-inkscape-stroke:none;fill-opacity:1"
             d="m 102.91797,110.27539 c -0.24419,0 -0.52886,0.0145 -0.89649,0.21875 -0.36762,0.20424 -0.77343,0.79054 -0.77343,1.3125 0,0.4869 0.14992,0.69584 0.26562,0.88867 0.1157,0.19284 0.23699,0.34246 0.38086,0.48633 a 1.250125,1.250125 0 0 0 0.0156,0.0156 l 1.93554,1.87109 v 45.24805 0.002 l -2.0039,2.25976 0.0527,-0.0547 c -0.14386,0.14385 -0.26515,0.29349 -0.38086,0.48633 -0.1157,0.19284 -0.26562,0.4018 -0.26562,0.88867 0,0.52195 0.40581,1.10826 0.77343,1.3125 0.36763,0.20423 0.6523,0.21875 0.89649,0.21875 h 9.26758 c 0.24457,0 0.55894,0.0103 0.97851,-0.25196 0.41958,-0.26223 0.69336,-0.89621 0.69336,-1.27929 0,-0.48687 -0.14992,-0.69583 -0.26562,-0.88867 -0.11571,-0.19284 -0.23896,-0.34248 -0.38282,-0.48633 l 0.0527,0.0547 -2.00195,-2.25976 v -48.37109 c 0,-0.34875 -0.0923,-0.78183 -0.40625,-1.14063 -0.31395,-0.3588 -0.81223,-0.53125 -1.19532,-0.53125 z m 2.15234,2.5 h 3.68946 v 47.54297 c 0,0.14041 -0.0103,0.31144 0.0332,0.57226 0.0435,0.26083 0.18145,0.65218 0.47266,0.94336 l -0.0527,-0.0566 1.02149,1.15235 h -5.36524 l 1.02149,-1.15235 -0.0527,0.0566 c 0.29121,-0.29118 0.42919,-0.68253 0.47266,-0.94336 0.0435,-0.26082 0.0351,-0.43185 0.0351,-0.57226 v -45.42383 c 0,-0.48916 -0.29041,-1.1576 -0.57812,-1.44531 a 1.250125,1.250125 0 0 0 -0.0137,-0.0137 z"
             id="path1027" />
        </g>
        <g
           id="path996"
           style="fill:#63727a;fill-opacity:1">
          <path
             style="color:#000000;-inkscape-font-specification:'Birch Std, Normal';fill:#63727a;stroke:none;stroke-linecap:butt;stroke-linejoin:miter;-inkscape-stroke:none;fill-opacity:1"
             d="m 129.87701,133.9206 c 0,-7.23106 -4.42288,-8.77556 -6.95025,-8.77556 -3.93145,0 -7.9331,4.91432 -7.9331,5.75677 0,0.21061 0.0702,0.35102 0.21061,0.35102 0.21061,0 0.42123,-0.0702 0.56164,-0.21061 1.26368,-1.26368 4.21227,-2.87839 6.2482,-2.87839 2.24654,0 2.94858,0.77225 2.94858,3.86125 0,2.87839 0,3.51023 -1.40409,4.6335 -7.72249,6.17799 -8.91597,8.28413 -8.91597,16.14703 0,9.61802 3.36982,11.37313 6.10779,11.37313 1.89553,0 3.72084,-1.40409 4.84412,-2.66777 0.84245,1.26368 1.96572,2.66777 4.14206,2.66777 1.75511,0 3.36982,-2.10613 3.65063,-4.14206 0,-0.21062 -0.0702,-0.35103 -0.21061,-0.35103 -0.14041,0 -0.21061,0.14041 -0.35102,0.28082 -0.56164,0.84246 -1.33389,1.19348 -2.03593,1.19348 -0.63184,0 -0.91266,-0.84246 -0.91266,-1.75511 z m -4.91432,23.09728 c 0,1.96573 -1.26368,4.14207 -2.80818,4.14207 -1.54449,0 -2.31674,-1.61471 -2.31674,-9.61802 0,-7.16086 1.12327,-9.61801 4.98452,-12.91763 h 0.1404 z"
             id="path1031" />
          <path
             style="color:#000000;-inkscape-font-specification:'Birch Std, Normal';fill:#63727a;stroke:none;stroke-linecap:butt;stroke-linejoin:miter;-inkscape-stroke:none;fill-opacity:1"
             d="m 122.92773,123.89453 c -2.48655,0 -4.65749,1.43427 -6.27539,2.88086 -0.80894,0.7233 -1.47862,1.46633 -1.9707,2.11914 -0.24604,0.32641 -0.44622,0.62753 -0.60547,0.91992 -0.15925,0.29239 -0.33203,0.48779 -0.33203,1.08789 0,0.24419 0.0163,0.52416 0.2168,0.875 0.20048,0.35085 0.75727,0.72461 1.24414,0.72461 0.48837,0 1.01025,-0.14111 1.44531,-0.57617 0.47634,-0.47634 1.45631,-1.16488 2.49805,-1.67383 1.04174,-0.50894 2.17773,-0.83789 2.86523,-0.83789 0.98004,0 1.20103,0.12369 1.33594,0.29492 0.13491,0.17124 0.36328,0.86661 0.36328,2.31641 0,1.43919 -0.0286,2.26146 -0.13281,2.65234 -0.10424,0.39089 -0.18997,0.5137 -0.80274,1.00391 -3.89082,3.11266 -6.25582,5.26631 -7.66601,7.8125 -1.4102,2.54619 -1.71875,5.31586 -1.71875,9.31055 0,4.95499 0.8425,8.05681 2.26367,10.02539 1.42117,1.96858 3.45767,2.59961 5.09375,2.59961 1.97163,0 3.5034,-1.06471 4.73633,-2.19336 0.94683,1.10333 2.19901,2.19336 4.25,2.19336 1.37755,0 2.5155,-0.78264 3.33398,-1.75391 0.81848,-0.97126 1.37795,-2.18733 1.55469,-3.46875 a 1.250125,1.250125 0 0 0 0.0117,-0.16992 c 0,-0.24419 -0.0163,-0.52415 -0.2168,-0.875 -0.20047,-0.35085 -0.75727,-0.72656 -1.24414,-0.72656 -0.48687,0 -0.90773,0.30226 -1.05859,0.45312 -0.15086,0.15087 -0.17924,0.19682 -0.17578,0.19336 a 1.250125,1.250125 0 0 0 -0.15625,0.19141 c -0.22182,0.33272 -0.41566,0.31719 -0.61914,0.39453 -0.0146,-0.10464 -0.0391,-0.13999 -0.0391,-0.26367 v -25.48438 c 0,-3.87038 -1.23242,-6.47819 -2.9375,-8.02539 -1.70507,-1.5472 -3.7434,-2 -5.26172,-2 z m 0,2.5 c 1.00906,0 2.44383,0.31875 3.58204,1.35156 1.1382,1.03282 2.11718,2.81316 2.11718,6.17383 v 25.48438 c 0,0.58453 0.0686,1.16447 0.33399,1.74218 0.25111,0.54655 0.89959,1.15095 1.70508,1.21875 -0.33062,0.24573 -0.68283,0.56446 -0.92969,0.56446 -1.63871,0 -2.30653,-0.91877 -3.10156,-2.11133 a 1.250125,1.250125 0 0 0 -1.42383,-0.36328 c 0.63329,-1.00136 1.00195,-2.20514 1.00195,-3.4375 V 138.625 a 1.250125,1.250125 0 0 0 -1.25,-1.25 h -0.14062 a 1.250125,1.250125 0 0 0 -0.35547,0.13086 c 0.72181,-0.60825 1.29575,-1.31511 1.52734,-2.18359 0.24679,-0.92546 0.21875,-1.85769 0.21875,-3.29688 0,-1.63919 -0.12265,-2.87614 -0.90039,-3.86328 -0.77774,-0.98714 -2.03233,-1.24805 -3.29883,-1.24805 -0.52396,0 -1.04629,0.12182 -1.5664,0.2461 0.8503,-0.45517 1.71153,-0.76563 2.48046,-0.76563 z m -0.70898,13.07422 c -1.04662,1.12784 -1.93923,2.29841 -2.49805,3.70508 -0.85672,2.15657 -1.13281,4.7214 -1.13281,8.36719 0,4.04185 0.16843,6.4894 0.62305,8.14257 0.22731,0.82659 0.53548,1.49711 1.0664,2.00391 0.53093,0.5068 1.27303,0.72266 1.87696,0.72266 0.26869,0 0.4629,-0.16255 0.70508,-0.22657 -0.70918,0.44022 -1.45548,0.7461 -2.10938,0.7461 -1.10189,0 -2.11818,-0.24903 -3.06641,-1.5625 -0.94823,-1.31348 -1.79101,-3.89948 -1.79101,-8.5625 0,-3.8682 0.28908,-6.08251 1.40625,-8.09961 0.85623,-1.54597 2.57397,-3.22621 4.91992,-5.23633 z m 1.49414,2.01172 v 15.53711 c 0,0.71501 -0.25793,1.56127 -0.625,2.13086 -0.36707,0.56959 -0.74846,0.76172 -0.93359,0.76172 -0.16832,0 -0.10214,0.0148 -0.15039,-0.0312 -0.0483,-0.0461 -0.22205,-0.27992 -0.38086,-0.85743 -0.31763,-1.15501 -0.53516,-3.51902 -0.53516,-7.48046 0,-3.51507 0.28485,-5.75819 0.95508,-7.44532 0.38303,-0.96417 0.95558,-1.79288 1.66992,-2.61523 z"
             id="path1033" />
        </g>
        <g
           id="path998"
           style="fill:#63727a;fill-opacity:1">
          <path
             style="color:#000000;-inkscape-font-specification:'Birch Std, Normal';fill:#63727a;stroke:none;stroke-linecap:butt;stroke-linejoin:miter;-inkscape-stroke:none;fill-opacity:1"
             d="m 136.33585,163.82772 c 0,0.14041 0,0.35102 0.28082,0.35102 0.21061,0 0.42122,-0.14041 0.63184,-0.28082 l 3.2294,-2.38695 h 0.14041 c 1.33389,1.40409 3.22941,2.66777 5.47595,2.66777 3.089,0 6.31841,-1.75511 6.31841,-21.55278 0,-15.6556 -3.36982,-17.48092 -6.38861,-17.48092 -2.03593,0 -3.44002,1.12327 -4.6335,2.45716 h -0.14041 v -15.65561 c 0,-0.28081 -0.1404,-0.42122 -0.42122,-0.42122 h -6.66943 c -0.28082,0 -0.42123,0.0702 -0.42123,0.28082 0,0.1404 0.0702,0.35102 0.28082,0.49143 l 2.03593,1.6147 c 0.21061,0.14041 0.28082,0.35102 0.28082,0.56164 z m 4.91431,-30.39855 c 0,-3.44002 2.10614,-5.26534 3.089,-5.26534 1.75511,0 2.59757,1.4743 2.59757,14.46213 0,16.77888 -0.70205,18.53399 -2.52736,18.53399 -1.68491,0 -3.15921,-1.89552 -3.15921,-4.77391 z"
             id="path1037" />
          <path
             style="color:#000000;-inkscape-font-specification:'Birch Std, Normal';fill:#63727a;stroke:none;stroke-linecap:butt;stroke-linejoin:miter;-inkscape-stroke:none;fill-opacity:1"
             d="m 134.16016,110.27539 c -0.24457,0 -0.55895,-0.0103 -0.97852,0.25195 -0.41957,0.26223 -0.69336,0.89622 -0.69336,1.2793 0,0.55707 0.2539,1.14193 0.83789,1.53125 l -0.084,-0.0606 1.84375,1.46289 v 49.08789 c 0,0.0702 -0.0554,0.34423 0.16601,0.78711 0.22145,0.44289 0.91234,0.81446 1.36524,0.81446 0.76618,0 1.11361,-0.35179 1.32422,-0.49219 a 1.250125,1.250125 0 0 0 0.0508,-0.0352 l 2.55273,-1.88672 c 1.4348,1.27816 3.24742,2.41407 5.54883,2.41407 0.89062,0 1.96562,-0.13959 2.9668,-0.78321 1.00117,-0.64361 1.84609,-1.73032 2.50781,-3.3457 1.32344,-3.23076 2.09375,-8.70899 2.09375,-18.67578 0,-7.91748 -0.80597,-12.42512 -2.19531,-15.17383 -1.38935,-2.74871 -3.68203,-3.55664 -5.44336,-3.55664 -1.40184,0 -2.53298,0.49057 -3.52344,1.14258 v -13.08984 c 0,-0.34873 -0.10587,-0.83634 -0.4707,-1.20118 -0.36483,-0.36483 -0.85243,-0.4707 -1.20118,-0.4707 z m 2.47265,2.5 H 140 v 14.82617 a 1.250125,1.250125 0 0 0 1.25,1.25 h 0.125 c -0.78244,1.09905 -1.375,2.64452 -1.375,4.57813 v 22.95703 c 0,1.61564 0.40835,3.01614 1.13281,4.0957 a 1.250125,1.250125 0 0 0 -0.51367,-0.2207 h -0.14062 a 1.250125,1.250125 0 0 0 -0.74415,0.24414 l -2.14843,1.58789 v -47.61914 c 0,-0.48841 -0.25395,-1.21226 -0.83789,-1.60156 l 0.084,0.0605 z m 9.39063,13.61914 c 1.25745,0 2.16068,0.10575 3.21093,2.18359 1.05026,2.07785 1.92774,6.30877 1.92774,14.04688 0,9.83086 -0.84274,15.13231 -1.90625,17.72852 -0.53175,1.2981 -1.07376,1.8853 -1.54688,2.18945 -0.47311,0.30415 -0.96135,0.38672 -1.61523,0.38672 -0.95702,0 -1.84519,-0.32431 -2.66406,-0.79492 0.32609,0.10052 0.62886,0.27539 0.98047,0.27539 0.65664,0 1.61236,-0.30583 2.16211,-1.03321 0.54974,-0.72738 0.80353,-1.63909 1.01953,-2.99609 0.43198,-2.714 0.5957,-7.34899 0.5957,-15.75586 0,-6.52094 -0.19186,-10.15055 -0.66992,-12.36523 -0.23903,-1.10735 -0.54393,-1.91285 -1.12891,-2.52539 -0.58497,-0.61255 -1.43505,-0.82032 -2.04883,-0.82032 -0.18081,0 -0.3019,0.11696 -0.46679,0.14649 0.62484,-0.40577 1.30522,-0.66602 2.15039,-0.66602 z m -1.6836,3.01953 c 0.26378,0 0.17558,-0.0229 0.24219,0.0469 0.0666,0.0697 0.30122,0.44341 0.49219,1.32812 0.38194,1.76942 0.61328,5.36906 0.61328,11.83594 0,8.372 -0.18909,13.00501 -0.56445,15.36328 -0.18769,1.17914 -0.45162,1.75482 -0.54688,1.88086 -0.0953,0.12604 0.09,0.041 -0.16601,0.041 -0.37371,0 -0.78353,-0.19282 -1.18555,-0.77149 C 142.82259,158.56001 142.5,157.6125 142.5,156.38672 v -22.95703 c 0,-1.46491 0.44254,-2.51337 0.93359,-3.1836 0.49106,-0.67022 1.18864,-0.83203 0.90625,-0.83203 z"
             id="path1039" />
        </g>
        <g
           id="path1000"
           style="fill:#63727a;fill-opacity:1">
          <path
             style="color:#000000;-inkscape-font-specification:'Birch Std, Normal';fill:#63727a;stroke:none;stroke-linecap:butt;stroke-linejoin:miter;-inkscape-stroke:none;fill-opacity:1"
             d="m 168.34916,125.84709 c 0,-0.35103 -0.1404,-0.70205 -0.28081,-0.70205 -0.21062,0 -0.35103,0.28082 -0.49144,0.42123 l -2.03593,1.82531 c -1.19347,-1.40409 -2.45715,-2.24654 -4.14206,-2.24654 -2.52736,0 -5.33554,2.94859 -5.33554,7.51188 0,4.28248 1.47429,8.63516 4.00165,12.84742 2.24655,3.65064 4.49309,8.28414 4.49309,12.63681 0,1.82532 -0.70204,3.0188 -2.24654,3.0188 -2.59757,0 -4.21227,-5.12493 -5.33554,-10.81149 -0.0702,-0.35103 -0.0702,-0.63185 -0.42123,-0.63185 -0.21062,0 -0.28082,0.28082 -0.28082,0.49144 v 13.47926 c 0,0.28082 0.0702,0.49143 0.21061,0.49143 0.28082,0 0.49144,-0.21061 0.70205,-0.35102 l 1.82532,-1.89552 c 1.05306,1.33388 2.24654,2.24654 4.21227,2.24654 2.94858,0 6.03758,-2.66777 6.03758,-7.02045 0,-4.56329 -1.89552,-9.47761 -4.56329,-13.76008 -2.80818,-4.49309 -4.28247,-8.49474 -4.28247,-11.44333 0,-2.10614 0.28081,-3.79105 1.75511,-3.79105 1.33388,0 2.31675,1.26368 3.22941,3.51023 1.19347,3.01879 1.6849,5.12493 2.10613,7.30127 0.0702,0.35102 0.21061,0.63184 0.42123,0.63184 0.28082,0 0.42122,-0.28082 0.42122,-0.56164 z"
             id="path1043" />
          <path
             style="color:#000000;-inkscape-font-specification:'Birch Std, Normal';fill:#63727a;stroke:none;stroke-linecap:butt;stroke-linejoin:miter;-inkscape-stroke:none;fill-opacity:1"
             d="m 161.39844,123.89453 c -3.49958,0 -6.58594,3.68561 -6.58594,8.76172 0,4.56936 1.56916,9.13611 4.18164,13.49023 a 1.250125,1.250125 0 0 0 0.006,0.0137 c 2.19406,3.56534 4.30859,8.05791 4.30859,11.98046 0,0.75241 -0.16467,1.25897 -0.31836,1.47852 -0.15368,0.21955 -0.22745,0.29102 -0.67773,0.29102 -0.23836,0 -0.48019,-0.0899 -0.86133,-0.4961 -0.38113,-0.40617 -0.81518,-1.11094 -1.21484,-2.02734 -0.79933,-1.83281 -1.4798,-4.47965 -2.03321,-7.28125 a 1.250125,1.250125 0 0 0 -0.002,-0.002 c -0.0225,-0.11267 -0.003,-0.30982 -0.19531,-0.72657 -0.0962,-0.20837 -0.29027,-0.48526 -0.58008,-0.66797 -0.28981,-0.1827 -0.61667,-0.24218 -0.87109,-0.24218 -0.66085,0 -1.20018,0.55248 -1.35742,0.89843 -0.15725,0.34596 -0.17383,0.59957 -0.17383,0.84375 v 13.47852 c 0,0.24457 0.0114,0.48657 0.14258,0.81445 0.0656,0.16394 0.16444,0.36217 0.38085,0.56055 0.21642,0.19838 0.58991,0.36719 0.9375,0.36719 0.90581,0 1.34586,-0.52875 1.39649,-0.5625 a 1.250125,1.250125 0 0 0 0.20703,-0.17188 l 1.00391,-1.04492 c 1.07527,0.98027 2.36015,1.7793 4.13281,1.7793 3.70255,0 7.28711,-3.32741 7.28711,-8.27149 0,-4.90944 -1.99777,-10.00068 -4.75195,-14.42187 a 1.250125,1.250125 0 0 0 -0.002,0 c -2.7356,-4.37696 -4.09179,-8.24933 -4.09179,-10.78125 0,-0.99752 0.0968,-1.84839 0.24609,-2.25 0.0747,-0.20081 0.14404,-0.26897 0.1543,-0.27735 0.0103,-0.008 -0.025,-0.0137 0.10546,-0.0137 0.27221,0 0.46353,0.0704 0.83399,0.49024 0.37008,0.41942 0.8066,1.18594 1.23437,2.23828 4.5e-4,0.001 0.002,8.6e-4 0.002,0.002 1.15922,2.93492 1.62245,4.92598 2.03711,7.06836 a 1.250125,1.250125 0 0 0 0.002,0.008 c 0.054,0.26981 0.12444,0.5423 0.31836,0.85742 0.19392,0.31513 0.66727,0.7793 1.32812,0.7793 0.55708,0 1.10749,-0.36043 1.35547,-0.73242 0.24799,-0.37199 0.31641,-0.73135 0.31641,-1.08008 v -13.19726 c 0,-0.34217 -0.0539,-0.63777 -0.17774,-0.94727 -0.0619,-0.15475 -0.13516,-0.31459 -0.30078,-0.50781 -0.16562,-0.19323 -0.4968,-0.49805 -1.05273,-0.49805 -0.66085,0 -1.03595,0.38869 -1.20117,0.57227 -0.15611,0.17344 -0.22014,0.25687 -0.16407,0.20312 l -1.19335,1.07227 c -1.15417,-1.04319 -2.4686,-1.84766 -4.11133,-1.84766 z m 0,2.5 c 0.83479,0 1.4956,0.34613 2.15039,0.86719 -0.42972,-0.20393 -0.88833,-0.34766 -1.37696,-0.34766 -0.60666,0 -1.23046,0.20477 -1.6875,0.57813 -0.45703,0.37335 -0.73618,0.8581 -0.91601,1.34179 -0.35967,0.96738 -0.40234,2.01248 -0.40234,3.1211 0,3.36525 1.5919,7.49626 4.47265,12.10547 2.5806,4.14321 4.37305,8.88128 4.37305,13.09765 0,3.76128 -2.5925,5.77149 -4.78711,5.77149 -1.03927,0 -1.69057,-0.34984 -2.29102,-0.86133 0.42673,0.2014 0.8857,0.3418 1.37891,0.3418 1.09422,0 2.14115,-0.52391 2.72461,-1.35743 0.58346,-0.83351 0.77148,-1.83919 0.77148,-2.91211 0,-4.78277 -2.38065,-9.55509 -4.67968,-13.29101 l 0.008,0.0117 c -2.44224,-4.07039 -3.82422,-8.20949 -3.82422,-12.20508 0,-4.05047 2.5308,-6.26172 4.08594,-6.26172 z m 5.70117,1.27735 v 5.40429 c -0.22584,-0.67175 -0.23444,-1.09575 -0.53711,-1.86133 a 1.250125,1.250125 0 0 0 -0.004,-0.0117 c -0.46175,-1.13663 -0.96406,-2.05795 -1.59961,-2.81445 a 1.250125,1.250125 0 0 0 1.41602,-0.0664 z m -9.57617,29.21679 c 0.16269,0.45482 0.2416,1.08471 0.42187,1.49805 0.43035,0.98676 0.9381,1.81 1.54492,2.51172 a 1.250125,1.250125 0 0 0 -1.3789,0.16601 l -0.58789,0.61133 z"
             id="path1045" />
        </g>
        <g
           id="path1002"
           style="fill:#63727a;fill-opacity:1">
          <path
             style="color:#000000;-inkscape-font-specification:'Birch Std, Normal';fill:#63727a;stroke:none;stroke-linecap:butt;stroke-linejoin:miter;-inkscape-stroke:none;fill-opacity:1"
             d="m 174.45694,157.08809 c -1.82532,0 -2.52737,1.82531 -2.52737,3.58043 0,1.6849 0.70205,3.51022 2.52737,3.51022 1.89552,0 2.59756,-1.82532 2.59756,-3.51022 0,-1.75512 -0.70204,-3.58043 -2.59756,-3.58043 z"
             id="path1049" />
          <path
             style="color:#000000;-inkscape-font-specification:'Birch Std, Normal';fill:#63727a;stroke:none;stroke-linecap:butt;stroke-linejoin:miter;-inkscape-stroke:none;fill-opacity:1"
             d="m 174.45703,155.83789 c -1.32932,0 -2.45036,0.78423 -3.02148,1.74023 -0.57113,0.95601 -0.75586,2.04562 -0.75586,3.08985 0,1.01606 0.18768,2.08999 0.75976,3.03515 0.57208,0.94517 1.68826,1.72657 3.01758,1.72657 1.349,0 2.48526,-0.7676 3.07227,-1.7168 0.587,-0.9492 0.77539,-2.02886 0.77539,-3.04492 0,-1.04422 -0.18543,-2.13948 -0.77149,-3.09961 -0.58605,-0.96013 -1.72718,-1.73047 -3.07617,-1.73047 z m 0,2.5 c 0.54653,0 0.70451,0.1419 0.94336,0.5332 0.23885,0.39131 0.4043,1.08598 0.4043,1.79688 0,0.66884 -0.1625,1.34578 -0.40039,1.73047 -0.2379,0.38468 -0.40074,0.53125 -0.94727,0.53125 -0.49599,0 -0.64363,-0.13277 -0.87891,-0.52149 -0.23527,-0.38871 -0.39843,-1.0714 -0.39843,-1.74023 0,-0.71089 0.16611,-1.41121 0.40234,-1.80664 0.23623,-0.39543 0.37901,-0.52344 0.875,-0.52344 z"
             id="path1051" />
        </g>
      </g>
    </g>
  </g>
</svg>
